<svg xmlns="http://www.w3.org/2000/svg" viewBox="0 0 24 24" role="img" aria-hidden="true"><title>GitHub</title><path fill="currentColor" d="M12 .3a12 12 0 0 0-3.8 23.38c.6.1.82-.26.82-.58v-2.05c-3.34.73-4.04-1.61-4.04-1.61-.55-1.39-1.33-1.76-1.33-1.76-1.09-.74.08-.73.08-.73 1.2.09 1.84 1.24 1.84 1.24 1.07 1.83 2.81 1.3 3.5.99.11-.77.42-1.3.76-1.6-2.66-.3-5.47-1.33-5.47-5.93 0-1.31.47-2.38 1.24-3.22-.12-.31-.54-1.53.12-3.2 0 0 1.01-.32 3.3 1.23a11.51 11.51 0 0 1 6 0c2.28-1.55 3.29-1.23 3.29-1.23.66 1.67.24 2.89.12 3.2.77.84 1.24 1.91 1.24 3.22 0 4.61-2.81 5.62-5.49 5.92.43.37.81 1.1.81 2.22v3.29c0 .32.22.7.83.58A12 12 0 0 0 12 .3Z"/></svg>
